<svg width="34" height="35" viewBox="0 0 34 35" fill="none" xmlns="http://www.w3.org/2000/svg">
<g clip-path="url(#clip0_110_2933)">
<path d="M33.9768 17.8274C33.9768 16.3935 33.8612 15.3471 33.6109 14.262H17.3385V20.734H26.89C26.6975 22.3424 25.6577 24.7646 23.3467 26.3923L23.3143 26.6089L28.4594 30.6197L28.8158 30.6555C32.0895 27.6131 33.9768 23.1369 33.9768 17.8274Z" fill="#4285F4"/>
<path d="M17.3385 34.8798C22.018 34.8798 25.9464 33.3295 28.8158 30.6555L23.3467 26.3923C21.8832 27.4193 19.9189 28.1363 17.3385 28.1363C12.7553 28.1363 8.86535 25.0941 7.47869 20.8892L7.27544 20.9065L1.92555 25.0727L1.85559 25.2684C4.70564 30.9654 10.5599 34.8798 17.3385 34.8798Z" fill="#34A853"/>
<path d="M7.47871 20.8891C7.11283 19.8039 6.90108 18.6412 6.90108 17.4398C6.90108 16.2384 7.11283 15.0757 7.45946 13.9906L7.44977 13.7595L2.03285 9.52637L1.85561 9.6112C0.680971 11.9753 0.00695801 14.6301 0.00695801 17.4398C0.00695801 20.2496 0.680971 22.9042 1.85561 25.2684L7.47871 20.8891Z" fill="#FBBC05"/>
<path d="M17.3385 6.74338C20.5929 6.74338 22.7882 8.15794 24.04 9.34006L28.9313 4.53437C25.9273 1.72462 22.018 0 17.3385 0C10.5599 0 4.70564 3.91426 1.85559 9.61124L7.45944 13.9906C8.86535 9.78571 12.7553 6.74338 17.3385 6.74338Z" fill="#EB4335"/>
</g>
<defs>
<clipPath id="clip0_110_2933">
<rect width="34" height="35" fill="white"/>
</clipPath>
</defs>
</svg>
