<svg width="28" height="28" viewBox="0 0 28 28" fill="none" xmlns="http://www.w3.org/2000/svg">
<path d="M14 8.75C12.9616 8.75 11.9466 9.05791 11.0833 9.63478C10.2199 10.2117 9.54699 11.0316 9.14963 11.9909C8.75227 12.9502 8.64831 14.0058 8.85088 15.0242C9.05345 16.0426 9.55346 16.9781 10.2877 17.7123C11.0219 18.4465 11.9574 18.9466 12.9758 19.1491C13.9942 19.3517 15.0498 19.2477 16.0091 18.8504C16.9684 18.453 17.7883 17.7801 18.3652 16.9167C18.9421 16.0534 19.25 15.0384 19.25 14C19.2486 12.6081 18.695 11.2735 17.7107 10.2893C16.7265 9.30504 15.3919 8.75145 14 8.75ZM14 16.625C13.4808 16.625 12.9733 16.471 12.5416 16.1826C12.1099 15.8942 11.7735 15.4842 11.5748 15.0045C11.3761 14.5249 11.3242 13.9971 11.4254 13.4879C11.5267 12.9787 11.7767 12.511 12.1438 12.1438C12.511 11.7767 12.9787 11.5267 13.4879 11.4254C13.9971 11.3242 14.5249 11.3761 15.0045 11.5748C15.4842 11.7735 15.8942 12.1099 16.1826 12.5416C16.471 12.9733 16.625 13.4808 16.625 14C16.625 14.6962 16.3484 15.3639 15.8562 15.8562C15.3639 16.3484 14.6962 16.625 14 16.625ZM19.25 2.1875H8.75C7.01014 2.18953 5.34212 2.88158 4.11185 4.11185C2.88158 5.34212 2.18953 7.01014 2.1875 8.75V19.25C2.18953 20.9899 2.88158 22.6579 4.11185 23.8881C5.34212 25.1184 7.01014 25.8105 8.75 25.8125H19.25C20.9899 25.8105 22.6579 25.1184 23.8881 23.8881C25.1184 22.6579 25.8105 20.9899 25.8125 19.25V8.75C25.8105 7.01014 25.1184 5.34212 23.8881 4.11185C22.6579 2.88158 20.9899 2.18953 19.25 2.1875ZM23.1875 19.25C23.1875 20.2943 22.7727 21.2958 22.0342 22.0342C21.2958 22.7727 20.2943 23.1875 19.25 23.1875H8.75C7.70571 23.1875 6.70419 22.7727 5.96577 22.0342C5.22734 21.2958 4.8125 20.2943 4.8125 19.25V8.75C4.8125 7.70571 5.22734 6.70419 5.96577 5.96577C6.70419 5.22734 7.70571 4.8125 8.75 4.8125H19.25C20.2943 4.8125 21.2958 5.22734 22.0342 5.96577C22.7727 6.70419 23.1875 7.70571 23.1875 8.75V19.25ZM21.4375 8.3125C21.4375 8.65862 21.3349 8.99696 21.1426 9.28475C20.9503 9.57253 20.677 9.79684 20.3572 9.92929C20.0374 10.0617 19.6856 10.0964 19.3461 10.0289C19.0066 9.96135 18.6948 9.79468 18.4501 9.54994C18.2053 9.30519 18.0386 8.99337 17.9711 8.65391C17.9036 8.31444 17.9383 7.96257 18.0707 7.6428C18.2032 7.32303 18.4275 7.04972 18.7153 6.85743C19.003 6.66514 19.3414 6.5625 19.6875 6.5625C20.1516 6.5625 20.5967 6.74687 20.9249 7.07506C21.2531 7.40325 21.4375 7.84837 21.4375 8.3125Z" fill="white"/>
</svg>
