<svg width="33" height="33" viewBox="0 0 33 33" fill="none" xmlns="http://www.w3.org/2000/svg">
<path d="M30.8825 8.25C29.8238 8.73125 28.6826 9.0475 27.5 9.19875C28.7101 8.47 29.6451 7.315 30.0851 5.92625C28.9438 6.61375 27.6788 7.095 26.3451 7.37C25.2588 6.1875 23.7326 5.5 22.0001 5.5C18.7688 5.5 16.1288 8.14 16.1288 11.3987C16.1288 11.8662 16.1838 12.32 16.2801 12.7463C11.3851 12.4988 7.0263 10.1475 4.12505 6.58625C3.6163 7.4525 3.32755 8.47 3.32755 9.5425C3.32755 11.5912 4.3588 13.4062 5.9538 14.4375C4.97755 14.4375 4.07005 14.1625 3.27255 13.75V13.7912C3.27255 16.6512 5.30755 19.0437 8.00255 19.58C7.1373 19.8168 6.22893 19.8497 5.3488 19.6762C5.72226 20.8484 6.45367 21.8741 7.4402 22.609C8.42674 23.344 9.61879 23.7513 10.8488 23.7738C8.76379 25.4244 6.1793 26.3166 3.52005 26.3037C3.05255 26.3037 2.58505 26.2762 2.11755 26.2212C4.73005 27.8987 7.83755 28.875 11.1651 28.875C22.0001 28.875 27.9538 19.8825 27.9538 12.0862C27.9538 11.825 27.9538 11.5775 27.9401 11.3162C29.095 10.4912 30.085 9.44625 30.8825 8.25Z" fill="white"/>
</svg>
