<svg width="165" height="55" viewBox="0 0 165 55" fill="none" xmlns="http://www.w3.org/2000/svg">
<g clip-path="url(#clip0_110_2355)">
<path d="M24.8637 16.9065V17.2122L24.954 38.6691C24.972 44.6223 27.8069 48.1115 33.5308 48.0935C39.1464 48.0755 41.9451 44.5504 41.9271 39.4424L41.8368 17.7158L49.7636 17.6799L49.8539 39.6223C49.89 48.723 44.6897 54.946 33.5669 54.982C22.3358 55.018 17.0814 48.795 17.0453 39.8022L16.9911 24.8201C16.9911 20.4676 20.5121 16.9065 24.8818 16.8885L24.8637 16.9065Z" fill="white"/>
<path d="M24.8276 8.92088C16.016 8.95685 8.91983 16.0971 8.95595 24.8561H13.5423C13.5242 18.5792 18.58 13.5072 24.8637 13.4712V8.90289L24.8276 8.92088Z" fill="white"/>
<path d="M24.8097 5.34173V0C11.0506 0.0539568 -0.0540941 11.205 7.52702e-05 24.8921H5.36285C5.32673 14.1187 14.03 5.3777 24.8277 5.32374L24.8097 5.34173Z" fill="white"/>
<path d="M114.803 54.0108L114.695 24.2986L103.951 24.3346L103.933 17.482L133.221 17.3561L133.239 24.2266L122.567 24.2626L122.676 53.9928L114.803 54.0108Z" fill="white"/>
<path d="M139.017 42.8417C141.617 45.5216 145.643 47.7518 150.717 47.7338C155.015 47.7338 157.091 45.6834 157.091 43.5971C157.091 40.8633 153.877 39.928 149.634 38.9568C143.621 37.6079 135.911 35.9892 135.875 27.8237C135.857 21.7446 141.111 16.7806 149.76 16.7446C155.593 16.7266 160.45 18.4532 164.097 21.7806L159.764 27.5C156.784 24.7662 152.812 23.5252 149.237 23.5431C145.661 23.5611 143.838 25.1079 143.856 27.3021C143.856 29.7662 146.943 30.5216 151.187 31.4928C157.254 32.8417 164.964 34.6223 165 42.7338C165.018 49.4244 160.251 54.4964 150.338 54.5324C143.296 54.5683 138.222 52.2302 134.737 48.777L139.017 42.8417Z" fill="white"/>
<path d="M99.9942 17.4774L92.1758 17.5087L92.3232 54.0911L100.142 54.0598L99.9942 17.4774Z" fill="white"/>
<path d="M64.2449 47.5719L74.3204 47.536C77.2997 47.536 79.0512 45.8093 79.0331 43.1834C79.0331 40.8813 77.372 38.9209 74.2843 38.9209L64.2088 38.9568L64.2449 47.5719ZM64.1907 32.3201L73.9954 32.2842C76.6316 32.2842 78.2748 30.5755 78.2748 28.2014C78.2748 25.9532 76.6136 24.2086 73.9593 24.2086L64.1546 24.2446L64.1907 32.3021V32.3201ZM56.4626 54.2266L56.3181 17.6439L75.6385 17.5719C82.6264 17.536 86.2196 21.9784 86.2377 26.8525C86.2557 31.4568 83.4028 34.5504 79.936 35.2698C83.8542 35.8633 86.996 39.6223 87.0141 44.2446C87.0322 49.7302 83.3667 54.1367 76.3788 54.1547L56.4445 54.2266H56.4626Z" fill="white"/>
</g>
<defs>
<clipPath id="clip0_110_2355">
<rect width="165" height="55" fill="white"/>
</clipPath>
</defs>
</svg>
